<?xml version="1.0" standalone="no"?><!DOCTYPE svg PUBLIC "-//W3C//DTD SVG 1.1//EN" "http://www.w3.org/Graphics/SVG/1.1/DTD/svg11.dtd"><svg t="1772443690337" class="icon" viewBox="0 0 1024 1024" version="1.1" xmlns="http://www.w3.org/2000/svg" p-id="4784" xmlns:xlink="http://www.w3.org/1999/xlink" width="64" height="64"><path d="M828.8 828.8c89.59999969-89.63200031 131.20000031-195.19999969 131.20000031-316.8 0-124.8-41.59999969-230.4-131.20000031-316.8C742.4 105.60000031 636.8 63.99999969 512 63.99999969c-121.60000031 0-227.20000031 41.59999969-316.8 131.20000031C108.8 281.6 63.99999969 387.2 63.99999969 512c0 121.632 44.80000031 227.20000031 131.20000031 316.8C284.79999969 915.2 390.39999969 960.00000031 512 960.00000031c124.8 0 230.4-44.80000031 316.8-131.20000031zM896 512c0 105.63199969-35.20000031 195.19999969-112.00000031 271.99999969-73.60000031 73.632-163.2 112.00000031-271.99999969 112.00000031-105.6 0-195.19999969-38.36800031-271.99999969-112.00000031C166.4 707.19999969 128 617.63199969 128 512c0-108.79999969 38.4-198.40000031 112.00000031-271.99999969C316.80000031 163.20000031 406.4 128 512 128c108.79999969 0 198.40000031 35.20000031 271.99999969 112.00000031C860.79999969 313.59999969 896 403.20000031 896 512z" p-id="4785" fill="#2c2c2c"></path><path d="M783.99999969 505.59999969c-6.40000031-6.40000031-16.00000031-9.6-22.39999969-9.6h-233.59999969V224c0-6.40000031-3.19999969-16.00000031-9.6-22.39999969-6.40000031-6.40000031-12.79999969-9.6-22.40000062-9.6-6.40000031 0-16.00000031 3.19999969-22.39999969 9.6-6.40000031 6.40000031-9.6 16.00000031-9.6 22.39999969v304.00000031c0 6.432 3.19999969 16.00000031 9.6 22.43199938 6.40000031 6.36799969 16.00000031 9.56800031 22.39999969 9.56800031h265.60000031c6.40000031 0 16.00000031-3.19999969 22.39999969-9.56800031 6.40000031-6.46399969 9.6-16.00000031 9.6-22.43199938 0-9.6-3.19999969-16.00000031-9.6-22.40000062z" p-id="4786" fill="#2c2c2c"></path></svg>