<?xml version="1.0" standalone="no"?><!DOCTYPE svg PUBLIC "-//W3C//DTD SVG 1.1//EN" "http://www.w3.org/Graphics/SVG/1.1/DTD/svg11.dtd"><svg t="1772444156231" class="icon" viewBox="0 0 1024 1024" version="1.1" xmlns="http://www.w3.org/2000/svg" p-id="10876" xmlns:xlink="http://www.w3.org/1999/xlink" width="64" height="64"><path d="M840.14 513.85c-21.76 56.15-60 112.14-110.59 161.86C595.4 807.61 394.46 907.09 262.1 907.09c-32.9 0-60.28-6.17-81.36-18.37-5.12-2.96-7.44-9.2-5.43-14.82 3.09-8.74 8.3-17.75 13.33-26.48 8.21-14.23 17.53-30.37 13.21-39.02-8.4-16.82-23.21-30.16-34.17-38.37-2.87-2.13-4.66-5.4-4.91-8.98-0.28-3.55 1.02-7.07 3.55-9.6 31.61-31.76 85.65-60.71 142.88-91.36 58.55-31.36 119.11-63.77 167.57-104.05 116.4-96.74 122.97-130.1 130.63-168.75 1.61-8.09 3.24-16.45 5.8-25.74 7.93-28.58 16.45-48.37 23.95-65.84 6.98-16.2 12.99-30.22 16.58-47.19 3.21-15.25-12.84-35.56-25.71-51.89-13.67-17.35-25.5-32.32-16.7-46.02 10.16-15.93 39.69-33.71 63.99-33.71 4.29 0 8.3 0.56 11.95 1.67 15.8 4.82 22.66 27.69 32.56 64.54 3.86 14.32 10.22 37.97 14.75 43.46 63.92 22.47 107.01 69.67 121.43 133 10.62 46.74 5.13 100.08-15.86 154.28z" fill="#FEFE71" p-id="10877"></path><path d="M675.31 116.91c4.29 0 8.3 0.56 11.95 1.67 15.8 4.82 22.66 27.69 32.56 64.54 3.86 14.32 10.22 37.97 14.75 43.46 63.92 22.47 107.01 69.67 121.43 133 10.62 46.73 5.12 100.07-15.87 154.27-21.76 56.15-60 112.14-110.59 161.86C595.4 807.61 394.46 907.09 262.1 907.09c-32.9 0-60.28-6.17-81.36-18.37-5.12-2.96-7.44-9.2-5.43-14.82 3.09-8.74 8.3-17.75 13.33-26.48 8.21-14.23 17.53-30.37 13.21-39.02-8.4-16.82-23.21-30.16-34.17-38.37-2.87-2.13-4.66-5.4-4.91-8.98-0.28-3.55 1.02-7.07 3.55-9.6 31.61-31.76 85.65-60.71 142.88-91.36 58.55-31.36 119.11-63.77 167.57-104.05 116.4-96.74 122.97-130.1 130.63-168.75 1.61-8.09 3.24-16.45 5.8-25.74 7.93-28.58 16.45-48.37 23.95-65.84 6.98-16.2 12.99-30.22 16.58-47.19 3.21-15.25-12.84-35.56-25.71-51.89-13.67-17.35-25.5-32.32-16.7-46.02 10.16-15.92 39.7-33.7 63.99-33.7m0-52c-25.54 0-48.01 9.42-62.37 17.33-11.32 6.23-32.25 19.75-45.42 40.36-7.98 12.46-18.98 38.28-3.4 71.64 6.1 13.08 14.7 23.99 23.02 34.54l0.05 0.06 0.1 0.13c3.41 4.32 9.58 12.16 13.24 17.8-2.65 8.68-6.4 17.4-11.14 28.4l-0.01 0.02-0.01 0.02-0.13 0.3c-7.72 17.98-17.32 40.35-26.15 72.15l-0.01 0.04-0.01 0.04c-2.99 10.83-4.87 20.31-6.53 28.68l-0.15 0.76v0.01l-0.01 0.05c-3.44 17.38-5.34 26.95-16.55 43.47-16.08 23.67-47.57 54.86-96.29 95.35-44.33 36.85-102.42 67.96-158.59 98.04l-0.3 0.16c-60.69 32.5-118.01 63.21-155.1 100.44a64.19 64.19 0 0 0-18.64 50.2 64.173 64.173 0 0 0 25.59 46.77c3.12 2.34 6.01 4.77 8.58 7.21-0.52 0.91-1.01 1.76-1.46 2.54l-0.01 0.02-0.03 0.05-0.19 0.34c-5.84 10.14-12.46 21.63-17.09 34.73-10.37 29.22 1.56 61.67 28.41 77.2 29.09 16.82 65.22 25.35 107.4 25.35 37.3 0 79.15-6.61 124.4-19.64 42.34-12.19 86.66-29.68 131.72-51.99C609.3 842.38 697.29 780.35 766 712.8c55.8-54.85 98.2-117.14 122.62-180.15 24.75-63.91 31-127.74 18.09-184.58-9.2-40.42-27.52-75.86-54.45-105.37-21.38-23.42-47.36-42.16-77.45-55.92-1.94-6.64-3.83-13.67-4.74-17.03l-0.04-0.16c-5.54-20.62-10.31-37.58-16.88-52.13-11.5-25.51-28.57-41.87-50.74-48.62-8.53-2.61-17.65-3.93-27.1-3.93z" fill="#463218" p-id="10878"></path><path d="M709.99 320.9c5.56-38.78-24.04-89.22-24.04-89.22l-52.73-101.07c-9.57 5.97-17.52 13.16-21.89 20-8.8 13.7 3.02 28.67 16.7 46.02 12.87 16.33 28.92 36.64 25.71 51.89-3.58 16.98-9.6 30.99-16.58 47.19-7.5 17.47-16.02 37.26-23.95 65.84-2.56 9.29-4.2 17.66-5.8 25.74-7.65 38.64-14.23 72.01-130.63 168.75-48.46 40.28-109.02 72.69-167.57 104.05-57.23 30.65-111.27 59.6-142.88 91.36a12.242 12.242 0 0 0-3.55 9.6c0.25 3.58 2.04 6.85 4.91 8.98 10.9 8.16 25.6 21.4 34.02 38.09 0.01 0 0.02-0.01 0.02-0.01C761.05 513 704.43 359.68 709.99 320.9z" fill="#D6CD1E" p-id="10879"></path><path d="M761.31 469.13c-17.09 38.6-88.07 107.86-113.98 131.29l28.93 32.01c10.23-9.24 100.62-91.88 124.5-145.83l-39.45-17.47z" fill="#FFFFFF" p-id="10880"></path><path d="M419.504612 764.731848a13.85 13.85 0 1 0 10.600331-25.591463 13.85 13.85 0 1 0-10.600331 25.591463Z" fill="#D6CD1E" p-id="10881"></path><path d="M647.33 649.11m-13.85 0a13.85 13.85 0 1 0 27.7 0 13.85 13.85 0 1 0-27.7 0Z" fill="#D6CD1E" p-id="10882"></path><path d="M754.89 359.55m-16.44 0a16.44 16.44 0 1 0 32.88 0 16.44 16.44 0 1 0-32.88 0Z" fill="#D6CD1E" p-id="10883"></path><path d="M374 803.33m-16.44 0a16.44 16.44 0 1 0 32.88 0 16.44 16.44 0 1 0-32.88 0Z" fill="#D6CD1E" p-id="10884"></path><path d="M474.923675 756.093536a25.88 25.88 0 1 0 51.092294-8.287043 25.88 25.88 0 1 0-51.092294 8.287043Z" fill="#D6CD1E" p-id="10885"></path><path d="M742.745446 440.472293a25.88 25.88 0 1 0 36.599208-36.600486 25.88 25.88 0 1 0-36.599208 36.600486Z" fill="#D6CD1E" p-id="10886"></path></svg>