<?xml version="1.0" standalone="no"?><!DOCTYPE svg PUBLIC "-//W3C//DTD SVG 1.1//EN" "http://www.w3.org/Graphics/SVG/1.1/DTD/svg11.dtd"><svg t="1772444133666" class="icon" viewBox="0 0 1024 1024" version="1.1" xmlns="http://www.w3.org/2000/svg" p-id="5374" xmlns:xlink="http://www.w3.org/1999/xlink" width="64" height="64"><path d="M497.7664 444.928s121.4464-102.2976 259.5328-81.8176 219.904 120.1664 222.464 259.5328-130.4064 250.5728-294.0416 245.4528-182.8352-101.0176-187.9552-157.2352c-5.12-56.2688 0-265.9328 0-265.9328z" fill="#EF81AE" p-id="5375"></path><path d="M679.7824 775.424c55.9104-194.0992-64.512-302.336-64.512-302.336l-118.528 24.9856c-1.1776 66.048-2.4064 174.6432 1.0752 212.7872 5.12 56.2688 24.2688 152.1152 187.9552 157.2352 163.6352 5.12 296.6016-106.1376 294.0416-245.4528-0.3072-17.2544-1.8432-33.8944-4.5568-49.8688-39.0144 169.8304-211.2 223.232-295.4752 202.6496z" fill="#E56AA5" p-id="5376"></path><path d="M696.4224 883.6096c-3.7376 0-7.4752-0.0512-11.2128-0.1536-187.7504-5.888-199.0144-130.304-202.752-171.2128-5.12-56.4736-0.256-259.072-0.0512-267.6736 0.1024-4.4032 2.0992-8.5504 5.4784-11.3664 5.1712-4.352 128.4096-106.496 271.6672-85.248 88.8832 13.1584 157.2352 57.344 197.5808 127.6928 4.2496 7.3728 1.6896 16.7424-5.6832 20.992s-16.7424 1.6896-20.992-5.6832c-35.5328-61.9008-96.2048-100.864-175.4624-112.5888-113.7152-16.8448-217.8048 55.7568-242.0736 74.24-0.8192 37.3248-4.352 208.0256 0.1024 256.9216 5.8368 64.3584 30.8224 138.8544 173.1072 143.3088 82.8928 2.6624 160.8704-26.112 214.1696-78.7456 42.3424-41.7792 65.0752-95.4368 64.0512-151.0912-0.4096-22.4256-3.0208-44.032-7.68-64.3072a15.37024 15.37024 0 1 1 29.952-6.912c5.1712 22.3232 8.0384 46.08 8.448 70.656 1.1776 64.1536-24.832 125.7472-73.1648 173.5168-56.832 56.0128-138.496 87.6544-225.4848 87.6544z" fill="#000F04" p-id="5377"></path><path d="M844.2368 629.6576c-8.2944 0-15.1552-6.6048-15.36-15.0016-1.4336-58.9312-16.0256-107.5712-43.264-144.5376-5.0176-6.8096-3.584-16.4352 3.2256-21.504 6.8096-5.0176 16.4352-3.584 21.504 3.2256 31.0784 42.1376 47.6672 96.6144 49.2544 161.9968a15.3344 15.3344 0 0 1-14.9504 15.7184c-0.1536 0.1024-0.3072 0.1024-0.4096 0.1024zM760.5248 437.9136c-3.328 0-6.656-1.0752-9.472-3.2768-52.48-41.1136-113.7152-43.1104-114.3296-43.1104-8.448-0.2048-15.2064-7.2192-15.0016-15.7184s6.9632-15.2064 15.6672-15.0016c2.9184 0.0512 71.7824 1.9968 132.608 49.664 6.656 5.2224 7.8336 14.8992 2.6112 21.5552-3.0208 3.8912-7.5264 5.888-12.0832 5.888z" fill="#000F04" p-id="5378"></path><path d="M470.8864 370.7392S242.0224 287.0784 142.336 500.1728c-100.0448 213.8112 63.2832 377.8048 201.984 384.512 119.0912 5.7856 177.6128-39.6288 200.0384-83.0976 45.4656-30.6688 137.1648-122.112 89.2928-287.5904-30.6688-106.0864-162.7648-143.2576-162.7648-143.2576z" fill="#EF81AE" p-id="5379"></path><path d="M641.7408 548.1472c-1.4848-4.864-3.0208-9.728-4.6592-14.5408 8.3456 69.3248-33.1776 160.768-76.288 134.6048-14.3872 81.0496-116.3264 141.1584-215.7056 133.376-149.0944-23.4496-205.4144-229.3248-215.3472-271.104-71.8848 198.8096 82.4832 347.8016 214.5792 354.2016 119.0912 5.7856 177.6128-39.6288 200.0384-83.0976 42.1888-28.4672 124.2624-109.4656 97.3824-253.44z" fill="#E56AA5" p-id="5380"></path><path d="M364.4928 900.5568c-6.7584 0-13.6704-0.1536-20.8896-0.512-36.2496-1.7408-90.8288-21.0944-129.7408-46.0288-7.168-4.5568-9.216-14.08-4.6592-21.1968 4.5568-7.168 14.08-9.2672 21.1968-4.6592 34.3552 22.016 83.6608 39.7312 114.688 41.216 129.4848 6.2976 172.9536-50.2272 185.6512-74.8032 1.1776-2.304 2.9184-4.2496 5.0688-5.6832 31.6928-21.4016 131.2768-104.0896 83.1488-270.592-27.9552-96.4608-150.9888-132.4032-152.2176-132.7616-0.3584-0.1024-0.7168-0.2048-1.0752-0.3584-8.8064-3.1744-216.9344-76.032-309.4016 121.5488-45.7728 97.8432-37.2736 197.2224 23.3472 272.64a15.37536 15.37536 0 0 1-23.9616 19.2512c-68.2496-84.9408-78.1824-196.0448-27.2384-304.896 101.7856-217.5488 333.1072-142.3872 347.0848-137.5744 10.3936 3.0208 140.8512 42.8032 172.9024 153.6512 53.2992 184.2688-60.928 280.1664-92.2624 302.3872-16.5888 29.696-65.4336 88.3712-191.6416 88.3712z" fill="#000F04" p-id="5381"></path><path d="M544.3584 816.9472c-2.2528 0-4.5056-0.512-6.656-1.536a15.34464 15.34464 0 0 1-7.168-20.48c0.3072-0.7168 34.7136-75.1104 15.9744-202.3424-3.1232-21.0432-10.8032-39.8848-22.9376-56.1152a15.36 15.36 0 1 1 24.6272-18.3808c15.2064 20.3264 24.8832 43.9296 28.7232 70.0416 20.224 137.3184-17.1008 216.832-18.688 220.16a15.38048 15.38048 0 0 1-13.8752 8.6528zM472.2688 492.3904c-2.2528 0-4.5056-0.512-6.656-1.536-46.08-22.2208-96.2048-25.4464-103.936-25.3952-6.5024 1.1264-13.2608-2.048-16.3328-8.2432a15.4112 15.4112 0 0 1 6.8608-20.6336c10.1888-5.12 74.8544 1.4848 126.8224 26.5728 7.6288 3.6864 10.8544 12.8512 7.168 20.5312-2.7136 5.5296-8.192 8.704-13.9264 8.704z m-106.3424-28.3136z" fill="#000F04" p-id="5382"></path><path d="M370.5344 262.7072S348.16 322.816 272.7424 324.096 122.5216 371.2 47.104 517.0176c56.8832 20.5824 201.3696 28.8768 241.6128-16.5376s52.4288-127.8464 57.5488-148.9408c5.12-21.0944 28.1088-61.952 28.1088-61.952l-3.84-26.88z" fill="#BFE5BD" p-id="5383"></path><path d="M348.3648 304.7936s-38.2464 121.1904-126.464 145.408c-87.6544 24.064-169.728 58.7776-171.4176 60.416-1.1264 2.1504-2.2528 4.2496-3.3792 6.4512 56.8832 20.5824 201.3696 28.8768 241.6128-16.5376 40.2944-45.3632 52.4288-127.8464 57.5488-148.9408 3.6352-14.8992 16.128-39.6288 23.1936-52.8896l-21.0944 6.0928z" fill="#A2DD9E" p-id="5384"></path><path d="M165.5808 548.864c-48.896 0-97.4336-7.8848-123.6992-17.3568-4.1472-1.4848-7.4752-4.7104-9.0624-8.8576-1.6384-4.096-1.3824-8.7552 0.6656-12.6464 31.0784-60.0576 62.72-105.216 96.768-137.984a15.36 15.36 0 0 1 21.7088 0.4096 15.36 15.36 0 0 1-0.4096 21.7088c-28.0576 26.9824-55.6032 65.1264-82.0736 113.5616 61.2352 15.0016 177.2032 17.1008 207.7696-17.3568 32.0512-36.1472 45.1584-99.584 51.456-130.0992 1.0752-5.12 1.8944-9.2672 2.6624-12.288 1.9968-8.192 6.0928-18.5344 10.7008-28.6208-16.7424 11.0592-39.2704 19.6096-69.0176 20.1216-26.3168 0.4608-50.3808 6.7072-73.5744 19.0976-7.4752 3.9936-16.7936 1.1776-20.7872-6.2976s-1.1776-16.7936 6.2976-20.7872c27.5968-14.7456 56.2176-22.1696 87.552-22.7328 63.488-1.0752 82.8928-49.408 83.712-51.456a15.47776 15.47776 0 0 1 16.0768-9.7792c6.9632 0.8192 12.4928 6.144 13.4656 13.056l3.84 26.88c0.4608 3.328-0.1536 6.7584-1.8432 9.728-6.0928 10.8544-22.784 42.496-26.5728 58.0608-0.6656 2.7648-1.4336 6.5536-2.4064 11.2128-6.8096 33.1264-21.0432 101.9904-58.5728 144.2816-25.1392 28.3136-80.1792 38.144-134.656 38.144z" fill="#000F04" p-id="5385"></path><path d="M312.064 154.0608s61.3888-21.0944 74.8032-8.6528 26.8288 24.9344 22.9888 59.4432-4.8128 85.3504-3.84 135.2192c0.9728 49.8688 4.5056 110.0288 4.5056 110.0288l-44.7488 0.1024s10.496-157.0816-6.7584-182.016c-17.2544-24.9344-55.6032-78.6432-46.9504-114.1248z" fill="#CF9782" p-id="5386"></path><path d="M365.7728 465.5616c-4.2496 0-8.2944-1.7408-11.2128-4.864-2.9184-3.1232-4.4032-7.2704-4.096-11.52 4.864-72.448 4.6592-158.9248-4.0448-172.288l-1.6896-2.4576c-20.1216-28.9792-57.5488-82.944-47.5648-124.0064 1.2288-5.0688 4.9664-9.216 9.9328-10.9056 32-10.9568 73.5744-20.8384 90.2656-5.376 14.4896 13.4656 32.512 30.208 27.8016 72.3968-3.4304 30.7712-4.7616 79.3088-3.7376 133.2224 0.9216 48.9984 4.4544 108.8512 4.5056 109.4144 0.256 4.1984-1.28 8.3456-4.1472 11.4176-2.9184 3.072-6.912 4.8128-11.1616 4.8128l-44.8512 0.1536c0.0512 0 0.0512 0 0 0zM326.144 165.6832c0.2048 28.4672 30.2592 71.7824 43.8272 91.2896l1.7408 2.5088c16.6912 24.1152 13.2096 125.8496 10.4448 175.4112h12.1856c-1.1264-21.4528-2.9696-60.4672-3.6352-94.4128-1.0752-55.9616 0.3072-104.704 3.9424-137.1648 2.9184-26.3168-5.12-34.3552-17.5104-45.8752-6.5536-2.2016-29.0304 1.5872-50.9952 8.2432z m51.4048-8.192z" fill="#000F04" p-id="5387"></path><path d="M411.3408 272.0768c-12.5952-14.8992-0.0512-37.2224 19.3024-34.5088 26.7264 3.6864 61.44 2.5088 100.3008-13.5168 88.2176-36.4544 135.2192-39.3216 207.104-10.5472s133.2736 11.52 133.2736 11.52-97.792 160.1024-239.7184 160.1024c-100.9152 0-177.1008-62.0032-220.2624-113.0496z" fill="#BFE5BD" p-id="5388"></path><path d="M631.552 385.1264c116.224 0 202.8032-107.3152 230.3488-146.2272-0.5632-0.9216-1.1264-1.8944-1.792-2.7648-29.3888 20.9408-81.7152 26.7776-137.2672 33.024s-77.1072 19.2512-145.7664 31.6928c-51.712 9.3696-131.584-32.1024-167.8336-53.1456-4.2496 7.168-4.4032 16.6912 2.048 24.32 43.2128 51.0976 119.3984 113.1008 220.2624 113.1008z" fill="#A2DD9E" p-id="5389"></path><path d="M631.552 400.4864c-114.5856 0-194.5088-74.24-231.9872-118.4768-9.8304-11.6224-11.4688-27.7504-4.1472-41.0624 7.3728-13.4144 22.016-20.736 37.2736-18.6368 30.8224 4.2496 61.9008 0.0512 92.3136-12.4928 90.6752-37.4784 140.1344-40.5504 211.7632-13.312 2.304 0.8704 4.608 1.7408 6.912 2.7136 65.792 26.3168 122.88 11.1104 123.4432 10.9568a15.4112 15.4112 0 0 1 17.2544 22.8352c-4.1472 6.8608-103.9872 167.4752-252.8256 167.4752zM423.0656 262.1952c33.9968 40.192 106.3424 107.6224 208.5376 107.6224 95.8976 0 171.9296-80.4352 206.4384-124.6208-26.4704 1.4336-64.4096-0.8704-105.728-17.408-2.1504-0.8704-4.3008-1.6896-6.4-2.5088-63.6928-24.2176-106.0864-21.2992-189.1328 13.0048-35.5328 14.6944-71.936 19.5584-108.2368 14.5408-3.6352-0.512-5.4272 1.6896-6.144 3.0208-0.8704 1.4848-1.4336 3.84 0.6656 6.3488z" fill="#000F04" p-id="5390"></path></svg>